<?xml version="1.0" standalone="no"?>
<!DOCTYPE svg PUBLIC "-//W3C//DTD SVG 20010904//EN"
 "http://www.w3.org/TR/2001/REC-SVG-20010904/DTD/svg10.dtd">
<svg version="1.0" xmlns="http://www.w3.org/2000/svg"
 width="1254.000000pt" height="1254.000000pt" viewBox="0 0 1254.000000 1254.000000"
 preserveAspectRatio="xMidYMid meet">

<g transform="translate(0.000000,1254.000000) scale(0.100000,-0.100000)"
fill="#000000" stroke="none">
<path id="shield-outline" d="M6000 12063 c-348 -8 -825 -43 -1190 -89 -1280 -160 -2483 -563
-3421 -1145 l-127 -79 122 -243 c208 -417 302 -699 363 -1097 14 -92 17 -305
23 -1740 6 -1400 9 -1662 23 -1825 125 -1425 567 -2430 1412 -3208 425 -391
797 -624 1430 -894 809 -345 1289 -559 1569 -700 l99 -50 191 97 c258 132 685
321 1082 480 551 222 839 365 1159 575 905 595 1538 1482 1815 2540 176 669
232 1382 214 2705 -11 797 -8 1637 6 1830 35 472 132 807 379 1306 l119 242
-182 105 c-585 341 -1184 598 -1846 792 -819 240 -1593 358 -2575 395 -253 9
-355 10 -665 3z m1075 -142 c1339 -98 2461 -391 3515 -917 232 -116 480 -252
508 -278 10 -10 -2 -43 -67 -172 -220 -444 -325 -789 -373 -1234 -13 -121 -16
-872 -9 -2185 8 -1383 -72 -2075 -321 -2785 -315 -898 -945 -1676 -1766 -2179
-286 -176 -462 -261 -937 -456 -552 -227 -1009 -428 -1214 -536 -52 -27 -100
-49 -108 -49 -7 0 -62 24 -121 54 -243 122 -987 450 -1577 696 -563 235 -1032
545 -1430 945 -757 760 -1135 1656 -1261 2990 -15 158 -18 386 -24 1840 -7
1813 -4 1718 -66 2005 -71 328 -184 622 -401 1040 -6 10 341 207 547 310 580
290 1281 537 1930 679 606 132 1026 190 1720 236 242 16 1215 13 1455 -4z"/>
<path d="M5890 11603 c-128 -4 -491 -30 -675 -48 -959 -97 -1974 -357 -2780
-713 -139 -61 -560 -265 -573 -277 -2 -2 16 -48 41 -102 153 -335 241 -633
281 -958 8 -66 18 -138 21 -160 4 -22 10 -787 14 -1700 7 -1595 8 -1668 29
-1870 95 -931 322 -1627 720 -2205 174 -252 470 -573 704 -764 211 -172 464
-334 723 -463 120 -60 229 -108 558 -242 358 -147 929 -393 1215 -524 l143
-66 180 85 c279 131 466 211 964 411 614 246 811 342 1110 544 561 378 998
884 1294 1500 261 541 388 1099 441 1924 27 432 32 770 24 1445 -16 1236 -8
1765 32 2070 42 325 134 657 274 985 33 78 39 100 28 107 -44 29 -520 258
-658 317 -1219 518 -2574 750 -4110 704z m820 -113 c961 -40 1795 -188 2638
-470 352 -117 723 -270 1042 -430 l140 -70 -16 -38 c-54 -125 -147 -396 -175
-507 -11 -44 -22 -85 -24 -92 -3 -8 -35 -3 -112 18 -923 253 -1806 329 -2848
243 -574 -47 -1149 -153 -1777 -328 l-87 -24 -38 32 c-196 166 -443 314 -614
369 -41 13 -119 30 -174 36 -185 23 -268 53 -434 161 -185 118 -303 171 -414
185 -55 7 -56 7 -62 47 -11 64 -42 91 -111 96 -54 4 -63 1 -92 -23 -22 -19
-34 -39 -38 -66 -4 -21 -8 -39 -9 -39 -33 0 -203 -39 -283 -65 -195 -63 -568
-259 -932 -490 -36 -23 -70 -44 -77 -48 -8 -5 -23 28 -47 106 -20 63 -65 184
-100 270 l-63 155 141 68 c556 265 1093 458 1696 609 929 233 1915 334 2870
295z m-3050 -941 l0 -59 40 0 c129 0 273 -56 465 -180 184 -118 275 -154 455
-176 147 -19 216 -41 365 -114 134 -67 304 -184 473 -329 209 -176 335 -266
430 -302 212 -81 545 -179 772 -229 l105 -23 251 101 c487 195 658 305 871
559 57 69 117 129 144 145 95 59 206 44 299 -39 64 -57 89 -94 179 -263 40
-74 121 -209 181 -300 121 -185 191 -308 249 -437 32 -70 45 -89 63 -91 97
-13 522 -130 758 -209 l285 -95 70 17 c39 10 76 20 83 23 8 3 12 -7 12 -29 l0
-34 -143 -38 c-240 -65 -476 -155 -760 -291 -133 -64 -157 -70 -157 -42 0 32
-114 413 -128 429 -21 24 -38 22 -112 -16 -155 -78 -390 -229 -765 -492 -528
-370 -612 -421 -792 -479 -28 -10 -57 -23 -63 -31 -13 -15 -30 -159 -30 -256
l0 -66 188 -46 c103 -25 189 -44 191 -42 2 2 -4 35 -13 72 -30 129 -35 117 89
195 61 38 117 73 127 78 14 8 18 -1 33 -68 10 -42 28 -108 41 -146 13 -38 21
-73 18 -77 -2 -4 -41 -28 -85 -54 l-81 -47 134 -54 c73 -31 139 -58 146 -61
15 -6 11 5 -42 120 -20 43 -36 83 -36 90 0 11 203 147 218 147 6 -1 95 -197
109 -241 3 -13 -21 -33 -97 -79 l-102 -63 34 -20 c18 -11 78 -51 134 -88 l101
-68 32 20 c17 10 33 19 35 19 2 0 16 -30 31 -67 22 -54 41 -81 93 -129 l65
-62 100 65 c55 36 106 67 113 70 15 5 99 -249 91 -272 -3 -7 -24 -23 -46 -36
-23 -12 -41 -25 -41 -29 0 -3 41 -46 90 -95 50 -49 90 -85 90 -80 0 6 -13 62
-30 125 -16 63 -28 115 -27 115 1 1 35 23 75 49 40 27 76 46 79 42 5 -5 27
-121 47 -253 l6 -42 -55 -36 c-71 -45 -71 -64 0 -24 41 23 56 28 60 17 4 -13
25 -160 25 -180 0 -5 29 -40 65 -77 l65 -68 252 127 c236 117 525 242 594 256
l29 6 -7 -139 c-9 -155 -23 -322 -29 -328 -2 -2 -33 3 -69 10 -36 8 -70 14
-75 15 -6 0 -19 -54 -28 -120 -36 -242 -85 -367 -166 -425 -33 -23 -55 -30
-105 -33 -125 -8 -171 27 -571 427 -154 155 -284 281 -289 281 -4 0 -56 -29
-115 -64 -232 -139 -527 -287 -721 -361 -92 -35 -313 -94 -365 -97 -47 -2 -72
10 -85 43 -11 26 -8 50 25 187 66 281 71 467 14 628 -42 121 -65 164 -180 340
-103 160 -179 297 -179 326 0 17 -19 25 -105 44 -113 25 -366 102 -482 148
-183 72 -294 123 -734 336 -414 202 -399 195 -712 331 -237 102 -266 118 -330
178 -69 64 -97 152 -75 232 7 25 4 27 -60 52 -679 264 -1561 450 -2294 484
l-138 6 0 221 c0 332 -20 544 -76 825 -23 118 -24 124 -7 137 37 27 382 235
498 300 152 85 379 194 473 228 96 34 256 66 331 66 l61 0 0 59 c0 49 3 60 18
64 28 6 32 -1 32 -64z m5344 -2031 c27 -38 20 -116 -14 -170 -17 -27 -34 -48
-38 -48 -7 0 -15 29 -49 177 -4 17 3 26 34 42 48 25 49 25 67 -1z m64 -185
c69 -228 75 -256 56 -270 -10 -7 -23 -13 -29 -13 -7 0 -23 51 -38 118 -14 64
-30 128 -35 141 -8 23 6 91 19 91 4 0 16 -30 27 -67z m825 -92 c4 -71 9 -136
12 -144 5 -10 -27 -26 -125 -62 -72 -26 -132 -46 -135 -43 -7 7 -55 224 -55
250 0 22 14 29 138 76 75 28 142 51 148 52 7 0 13 -46 17 -129z m-1263 54 c0
-19 9 -80 20 -137 19 -97 19 -103 2 -121 -17 -19 -196 -145 -219 -154 -6 -2
-14 8 -17 24 -10 45 -34 268 -30 272 18 19 231 157 237 154 4 -2 7 -20 7 -38z
m1583 -297 c3 -78 4 -144 2 -146 -11 -12 -219 -62 -226 -55 -7 8 -59 232 -59
257 0 15 76 44 185 70 99 24 91 34 98 -126z m-919 -155 c5 -18 -9 -30 -110
-87 -63 -37 -119 -67 -124 -69 -8 -2 -115 214 -123 246 -1 4 61 41 138 82
l140 74 37 -112 c20 -62 39 -122 42 -134z m-551 152 c28 -126 26 -133 -55
-155 -80 -21 -127 7 -112 66 6 25 128 164 144 164 4 0 14 -34 23 -75z m-652
-127 c0 -51 4 -119 8 -151 l7 -59 -110 -77 c-89 -62 -112 -74 -118 -62 -8 20
-10 204 -2 262 6 43 10 47 102 112 53 37 100 67 104 67 4 0 8 -42 9 -92z
m1549 50 c6 -24 22 -85 36 -137 14 -51 23 -96 19 -99 -7 -7 -252 -121 -275
-129 -13 -3 -24 24 -56 130 l-40 134 30 16 c62 33 261 127 268 127 4 0 12 -19
18 -42z m-1230 -106 c0 -18 53 -234 65 -264 5 -13 -23 -36 -129 -107 -74 -50
-137 -91 -140 -91 -13 0 -78 252 -74 286 2 17 37 46 133 113 72 49 133 87 138
84 4 -2 7 -12 7 -21z m1579 -94 c7 -24 28 -87 48 -141 22 -58 33 -101 27 -106
-19 -17 -235 -84 -243 -75 -10 10 -91 253 -91 271 0 6 19 18 43 27 89 34 182
65 193 66 6 0 16 -19 23 -42z m-1202 -169 c35 -63 63 -118 62 -124 0 -5 -53
-45 -117 -87 l-117 -78 -16 33 c-24 49 -93 236 -88 241 21 21 196 134 204 132
6 -1 38 -54 72 -117z m263 90 c6 -11 29 -70 50 -130 l39 -110 -68 -43 c-94
-60 -132 -79 -141 -69 -4 4 -17 33 -28 63 -11 30 -32 82 -47 114 -14 32 -24
64 -22 71 3 6 36 28 74 48 37 20 82 45 98 56 17 11 31 20 32 20 1 1 7 -8 13
-20z m-1470 -167 l0 -158 -72 -32 c-91 -39 -185 -72 -210 -72 -16 0 -18 8 -18
63 0 85 17 227 29 241 6 7 36 20 68 30 32 9 90 32 128 51 39 18 71 34 73 34 1
1 2 -70 2 -157z m1862 -97 l45 -144 -111 -61 c-61 -33 -115 -61 -121 -62 -5
-2 -22 38 -36 87 -14 50 -33 113 -42 142 l-16 52 77 44 c42 24 93 53 112 65
19 11 38 21 41 21 3 1 26 -64 51 -144z m788 -9 c0 -97 -3 -126 -15 -136 -12
-10 -16 -9 -21 6 -4 11 -24 63 -46 117 -21 53 -38 101 -38 106 0 10 101 40
113 34 4 -2 7 -60 7 -127z m-374 -122 c24 -60 43 -113 43 -119 1 -5 -20 -19
-47 -29 -26 -11 -94 -41 -152 -67 -58 -27 -108 -45 -111 -41 -4 4 -21 54 -39
111 -17 57 -34 109 -36 116 -3 6 6 16 18 22 139 67 265 122 272 120 5 -2 29
-52 52 -113z m-1196 -130 c29 -64 48 -119 44 -123 -20 -19 -255 -173 -257
-170 -20 34 -107 217 -107 225 0 5 21 25 48 44 110 78 203 140 211 140 5 0 32
-52 61 -116z m1551 31 c15 -39 19 -71 17 -140 l-3 -90 -85 -31 c-47 -18 -94
-34 -105 -38 -18 -5 -24 8 -63 125 -24 73 -40 135 -35 140 13 13 226 89 242
86 7 -1 22 -24 32 -52z m-1206 -150 c20 -71 39 -138 41 -147 4 -12 -19 -33
-85 -77 -50 -34 -94 -61 -99 -61 -4 0 -34 64 -65 142 -44 108 -55 144 -45 149
7 4 56 37 108 73 52 36 98 62 102 58 3 -4 23 -65 43 -137z m263 -45 c21 -87
26 -122 18 -129 -18 -15 -188 -112 -192 -109 -1 2 -14 56 -29 122 -22 99 -24
121 -13 132 14 13 169 103 179 104 4 0 20 -54 37 -120z m-2417 -184 c60 -98
108 -180 107 -181 -2 0 -37 -14 -78 -29 -171 -65 -298 -153 -341 -238 -30 -58
-34 -124 -14 -194 31 -106 170 -219 353 -284 53 -19 61 -26 56 -42 -7 -22
-162 -359 -168 -365 -2 -2 -50 14 -107 35 -420 158 -650 390 -666 672 -16 279
143 513 472 695 84 47 245 116 263 112 8 -1 63 -83 123 -181z m2757 65 c18
-65 32 -127 32 -138 0 -14 -31 -34 -130 -83 -71 -35 -131 -62 -134 -59 -4 3
-56 249 -56 263 0 8 236 135 251 136 3 0 20 -53 37 -119z m-5900 77 c19 -32
138 -252 310 -571 74 -139 86 -156 97 -140 13 20 304 509 382 643 l50 85 139
0 139 0 7 -120 c20 -319 95 -778 194 -1193 19 -79 34 -148 34 -153 0 -5 -106
-9 -244 -9 l-244 0 -27 143 c-14 78 -41 225 -58 326 l-32 183 -175 -288 c-96
-159 -185 -308 -200 -331 -14 -23 -27 -42 -30 -42 -3 0 -67 105 -143 233 -147
247 -226 375 -227 365 0 -5 -98 -386 -141 -551 l-10 -38 -229 0 c-185 0 -230
3 -230 13 0 8 38 164 85 348 88 349 185 761 231 986 l27 132 116 4 c64 1 126
4 138 5 15 1 27 -8 41 -30z m1975 -69 c89 -51 168 -97 175 -104 11 -10 3 -18
-40 -43 -126 -72 -188 -158 -188 -263 0 -52 4 -64 50 -131 28 -40 72 -101 99
-135 55 -69 90 -152 98 -230 12 -114 -41 -260 -127 -349 -45 -47 -145 -118
-211 -149 -34 -16 -37 -16 -80 5 -101 51 -359 206 -356 214 2 5 31 20 65 33
106 43 171 125 180 228 8 92 -3 115 -168 350 -90 129 -104 248 -43 375 40 85
88 138 173 195 66 44 170 94 198 95 8 0 86 -41 175 -91z m4329 -64 c11 -41 58
-246 58 -255 0 -4 -21 -15 -47 -25 -27 -10 -103 -42 -171 -71 -81 -35 -124
-49 -126 -41 -2 7 -14 64 -25 128 -12 63 -24 125 -27 137 -5 17 2 25 38 43 80
41 263 118 277 116 8 -1 18 -15 23 -32z m205 -342 c-4 -58 -7 -126 -7 -150 0
-37 -4 -45 -24 -53 -61 -23 -60 -25 -73 105 -18 183 -20 171 30 188 82 30 81
31 74 -90z m-872 15 c3 -29 13 -91 21 -138 8 -47 14 -92 14 -101 0 -14 -145
-109 -168 -109 -10 0 -56 289 -47 298 9 10 158 100 167 101 3 1 9 -23 13 -51z
m370 -130 c6 -30 25 -210 25 -243 0 -22 -15 -33 -140 -95 -77 -38 -142 -70
-145 -70 -3 0 -5 19 -5 43 -1 23 -7 87 -14 142 -7 55 -12 101 -11 103 6 6 270
141 277 142 4 0 10 -10 13 -22z m-6198 -1154 c98 -60 140 -166 130 -329 -7
-117 -28 -176 -86 -236 -62 -64 -137 -87 -228 -71 -77 13 -124 41 -162 95 -45
66 -64 140 -65 242 0 113 21 186 70 243 60 70 117 93 221 88 59 -2 82 -8 120
-32z m518 14 c42 -33 115 -137 115 -164 0 -26 -29 -90 -62 -136 l-19 -28 50
-60 c34 -41 51 -70 51 -89 0 -34 -45 -106 -94 -148 l-37 -33 -164 0 -165 0 0
335 0 334 93 4 c50 1 117 4 148 5 45 2 62 -2 84 -20z m544 -40 c7 -35 15 -71
18 -82 5 -16 -1 -18 -53 -16 -33 2 -76 2 -96 2 l-38 -2 0 -51 0 -50 91 3 91 3
-6 -59 c-3 -32 -6 -69 -6 -82 0 -23 -2 -23 -82 -21 l-83 2 -3 -46 c-3 -45 -2
-47 29 -53 17 -3 58 -6 90 -6 l59 0 -6 -27 c-3 -16 -12 -52 -20 -81 l-15 -53
-155 3 -155 3 -2 338 -2 337 166 0 166 0 12 -62z m439 48 c32 -17 80 -67 116
-120 39 -58 37 -128 -5 -187 -17 -24 -44 -55 -60 -69 -16 -14 -29 -32 -29 -41
0 -19 64 -152 91 -191 12 -16 20 -30 18 -32 -7 -5 -111 -26 -129 -26 -20 0
-71 65 -122 155 -18 32 -37 58 -43 59 -6 1 -12 -43 -15 -104 l-5 -105 -76 -3
-76 -3 -6 268 c-4 147 -10 301 -13 341 l-7 72 167 0 c125 0 174 -4 194 -14z
m395 -226 l-6 -240 34 0 c19 1 67 7 107 14 40 7 74 11 76 9 2 -3 -8 -60 -32
-183 l-7 -35 -172 -3 -173 -2 0 218 c0 120 -3 274 -7 340 l-6 122 96 0 95 0
-5 -240z m603 175 c13 -33 71 -181 129 -328 59 -148 105 -270 103 -272 -2 -1
-45 -4 -97 -6 l-95 -4 -15 57 c-17 65 -21 68 -128 68 l-72 0 -17 -60 c-9 -33
-21 -63 -26 -66 -5 -3 -46 -3 -92 1 l-83 7 42 107 c41 103 150 405 175 486 23
75 25 76 92 73 l60 -3 24 -60z m419 -42 c-11 -224 -15 -289 -21 -324 -6 -37
-6 -37 42 -52 27 -8 63 -18 81 -21 l32 -5 -2 241 -2 241 28 8 c15 4 56 10 90
14 l62 7 0 -335 0 -335 -44 -6 c-94 -13 -111 -6 -111 44 0 35 -19 30 -42 -11
l-23 -41 -62 5 c-36 4 -95 20 -139 38 l-76 32 7 51 c4 28 9 164 11 301 2 138
4 251 4 253 0 1 38 2 85 2 l85 0 -5 -107z m601 61 c35 -25 64 -48 64 -52 0 -4
-13 -14 -28 -23 -36 -21 -66 -82 -58 -120 3 -16 24 -59 46 -96 59 -98 64 -158
20 -244 -22 -41 -98 -112 -115 -105 -6 2 -42 25 -80 52 l-68 48 24 15 c53 35
69 61 69 115 0 43 -8 63 -45 126 -53 88 -59 144 -24 218 19 39 98 111 123 112
5 0 37 -20 72 -46z m315 41 c3 -2 1 -46 -4 -97 -5 -51 -8 -202 -9 -335 l0
-243 -84 0 -83 0 -3 336 c-2 185 -1 338 1 340 6 5 177 5 182 -1z m485 -13 c-2
-9 -10 -44 -16 -77 -21 -117 -14 -107 -77 -103 l-56 3 4 -240 4 -240 -87 -3
-88 -3 0 246 0 247 -27 -6 c-16 -3 -46 -6 -68 -8 -45 -3 -42 -17 -30 123 l6
75 220 2 c202 1 220 0 215 -16z m534 10 c0 -2 -44 -93 -99 -202 -54 -109 -104
-213 -110 -231 l-11 -32 111 6 111 7 -6 -23 c-3 -12 -13 -60 -22 -107 l-16
-85 -226 3 c-125 1 -228 6 -230 10 -1 5 47 111 108 237 61 125 109 229 108
230 -2 1 -52 -4 -112 -12 -60 -7 -110 -12 -113 -10 -3 4 35 196 42 208 4 5
465 6 465 1z m398 -57 c7 -35 15 -72 19 -81 5 -14 -1 -16 -48 -14 -30 2 -73 2
-96 2 l-43 -2 0 -51 0 -50 91 3 90 3 -7 -75 c-3 -41 -9 -77 -11 -80 -3 -3 -39
-5 -81 -5 l-77 0 -3 -46 -3 -46 47 -7 c26 -3 67 -6 91 -6 38 0 44 -3 39 -17
-3 -10 -10 -38 -16 -63 -6 -25 -13 -53 -16 -62 -5 -16 -21 -18 -157 -18 l-152
0 0 340 0 340 161 0 161 0 11 -65z m433 50 c36 -19 115 -124 128 -170 17 -62
-13 -137 -82 -204 -30 -29 -34 -37 -27 -62 9 -31 64 -142 86 -173 8 -11 14
-23 14 -27 0 -4 -30 -12 -66 -19 -64 -12 -67 -12 -90 11 -12 13 -45 62 -71
108 -27 46 -53 84 -58 85 -6 1 -12 -44 -15 -104 l-5 -105 -74 0 -73 0 -4 230
c-2 127 -8 275 -12 330 -5 55 -7 103 -5 108 2 4 76 7 164 7 125 0 167 -3 190
-15z m-242 -913 l40 -82 -34 -15 c-97 -40 -149 -120 -126 -195 14 -47 65 -100
120 -124 l38 -18 -35 -84 c-19 -46 -39 -84 -44 -84 -5 0 -30 11 -57 24 -73 37
-156 119 -188 184 -56 113 -30 258 62 361 36 39 162 124 177 118 4 -1 25 -39
47 -85z m-5512 65 c105 -28 178 -123 204 -266 10 -61 10 -79 -5 -138 -28 -115
-82 -200 -150 -236 -36 -19 -60 -22 -198 -25 l-158 -4 0 341 0 341 128 0 c73
0 149 -6 179 -13z m616 -1 c40 -16 123 -105 143 -151 29 -70 12 -123 -69 -212
l-50 -55 56 -111 c31 -61 55 -113 53 -115 -2 -2 -34 -9 -71 -15 l-66 -11 -24
29 c-13 17 -45 67 -71 113 -26 45 -52 81 -58 79 -7 -2 -12 -43 -14 -110 l-3
-107 -73 0 -73 0 -6 218 c-4 119 -10 272 -13 340 l-7 122 157 0 c109 0 166 -4
189 -14z m579 -61 c9 -38 18 -73 18 -77 0 -5 -43 -8 -95 -8 l-95 0 0 -50 0
-50 93 0 93 0 -9 -79 -10 -79 -83 6 -84 5 0 -50 c0 -60 6 -63 113 -63 60 0 68
-2 64 -17 -3 -10 -8 -31 -12 -48 -3 -16 -10 -46 -15 -65 l-9 -35 -158 3 -158
3 0 340 0 339 164 -2 165 -3 18 -70z m261 -64 c-4 -75 -7 -227 -6 -339 l3
-203 -85 3 -84 3 -3 338 -4 338 94 -2 93 -2 -8 -136z m259 120 c-9 -39 -14
-459 -6 -463 9 -5 84 2 170 17 l41 7 -13 -63 c-6 -35 -15 -85 -19 -111 l-6
-48 -175 0 -174 0 0 243 c0 133 -3 286 -7 340 l-6 98 99 -3 c79 -2 98 -6 96
-17z m601 -88 c149 -354 227 -544 227 -552 0 -11 -61 -21 -132 -21 l-56 0 -13
50 -13 51 -100 -3 -100 -3 -15 -47 -15 -48 -88 0 c-103 0 -99 -15 -41 135 54
141 159 426 173 470 23 71 26 75 79 75 l49 0 45 -107z m459 25 c42 -46 101
-114 132 -152 l57 -70 -6 135 c-4 74 -8 139 -10 146 -7 22 15 25 100 18 l83
-7 4 -326 c2 -220 0 -329 -7 -334 -5 -4 -28 -8 -50 -8 -39 0 -42 3 -110 91
-38 50 -101 131 -140 181 l-70 90 -9 -181 -8 -181 -77 0 -76 0 -1 340 -1 340
57 0 58 0 74 -82z m748 71 c90 -20 151 -81 192 -195 60 -164 -9 -379 -142
-447 -53 -27 -59 -27 -197 -25 l-142 3 -3 338 -4 337 126 0 c69 0 145 -5 170
-11z m628 -69 l20 -79 -96 -3 -96 -3 -1 -45 0 -45 93 -3 94 -3 -7 -52 c-14
-113 -6 -105 -93 -103 l-77 1 -3 -46 c-3 -45 -2 -47 29 -53 17 -3 56 -6 85 -6
63 0 64 -2 38 -106 -13 -49 -20 -64 -31 -60 -8 4 -78 6 -156 6 l-142 0 0 340
0 340 161 0 162 0 20 -80z m455 46 c61 -47 109 -121 115 -176 4 -39 -1 -57
-24 -100 -15 -28 -43 -65 -62 -82 -33 -28 -34 -31 -24 -66 7 -21 32 -73 57
-116 25 -44 43 -81 41 -84 -3 -2 -34 -10 -70 -17 l-66 -12 -23 31 c-20 26 -51
75 -115 185 -4 8 -14 11 -20 7 -8 -5 -12 -42 -12 -112 l0 -104 -75 0 -75 0 0
173 c0 94 -5 243 -12 330 -9 135 -9 160 3 168 8 5 84 8 169 7 153 -3 155 -3
193 -32z m525 -23 c7 -32 15 -68 18 -80 6 -23 5 -23 -90 -23 l-97 0 3 -47 3
-48 90 -3 91 -3 -9 -78 -10 -79 -81 1 -81 2 -3 -46 -3 -46 38 -7 c21 -3 62 -6
91 -6 28 0 52 -3 52 -7 -1 -5 -9 -42 -18 -83 -14 -58 -22 -75 -35 -74 -9 0
-79 1 -154 2 l-138 2 0 340 0 340 160 0 161 0 12 -57z m835 36 c40 -11 77 -22
84 -24 8 -3 1 -29 -24 -82 -19 -43 -50 -110 -68 -149 l-32 -70 83 -138 c46
-75 84 -139 84 -140 0 -5 -171 -59 -174 -55 -2 2 -28 54 -59 114 -88 173 -86
173 -87 17 l0 -133 -82 3 -81 3 -2 333 -1 332 83 0 82 0 3 -132 3 -133 28 60
c16 33 40 95 54 138 14 42 27 77 30 77 3 0 37 -9 76 -21z m-3898 -19 c8 -16
15 -34 15 -40 0 -13 -111 -173 -116 -167 -2 2 0 17 5 33 6 16 22 68 36 117 14
48 30 87 35 87 5 0 16 -13 25 -30z m377 -96 c2 -51 0 -90 -4 -86 -9 10 -88
188 -88 199 0 6 19 4 44 -4 l45 -15 3 -94z m936 -874 c56 -26 72 -37 67 -49
-24 -62 -120 -382 -146 -485 l-31 -126 -82 0 -82 0 -63 163 c-35 89 -88 218
-117 287 -30 68 -54 129 -54 135 0 10 134 80 153 80 6 0 97 -205 146 -330 9
-22 8 -26 77 228 22 82 42 136 48 134 6 -3 44 -19 84 -37z m-869 -37 c7 -32
15 -68 18 -80 5 -23 4 -23 -91 -23 l-96 0 0 -50 c0 -57 -3 -56 124 -51 60 3
68 1 63 -13 -4 -9 -10 -46 -13 -82 l-7 -66 -58 6 c-31 4 -69 4 -83 0 -23 -5
-26 -11 -26 -49 0 -50 9 -55 113 -55 l68 0 -7 -36 c-4 -20 -12 -57 -18 -83
-14 -53 13 -47 -214 -43 l-118 2 1 313 c0 171 -3 324 -8 340 l-7 27 173 0 174
0 12 -57z m270 -381 l62 -72 -62 -86 -62 -85 -75 74 -74 75 73 86 c40 47 73
85 74 83 1 -1 30 -35 64 -75z m801 -2 l62 -69 -63 -86 -62 -86 -75 74 -74 74
68 82 c37 44 71 81 75 81 4 0 35 -31 69 -70z m-1620 -445 c15 -18 6 -45 -13
-45 -8 0 -20 7 -27 15 -10 12 -10 18 0 30 16 19 24 19 40 0z m650 -14 c77 -55
80 -192 5 -261 -23 -22 -36 -25 -98 -25 l-72 0 -3 152 c-2 151 -2 152 20 156
41 9 122 -3 148 -22z m204 -79 c14 -54 26 -107 26 -118 1 -32 14 1 45 114 l28
102 34 0 33 0 0 -63 c0 -35 3 -105 6 -155 l7 -92 -26 0 -26 0 -3 122 -3 121
-35 -119 c-29 -97 -39 -119 -54 -119 -15 0 -24 21 -51 115 l-32 115 -6 -79
c-4 -43 -7 -96 -7 -118 0 -31 -3 -38 -20 -38 -23 0 -24 13 -13 198 l6 112 32
0 32 0 27 -98z m269 36 c9 -35 22 -85 28 -113 7 -27 15 -53 18 -57 3 -4 19 47
35 112 29 118 30 120 57 120 l28 0 -14 -47 c-8 -27 -29 -96 -47 -155 -30 -104
-32 -108 -59 -108 -25 0 -30 5 -39 43 -6 23 -25 88 -41 143 -16 56 -29 107
-29 113 0 6 11 11 24 11 20 0 25 -8 39 -62z m634 -60 l29 -123 16 55 c8 30 23
85 33 123 15 59 20 67 41 67 13 0 24 -3 24 -7 0 -5 -19 -73 -43 -153 -42 -145
-42 -145 -72 -145 -29 0 -31 3 -51 80 -12 44 -30 113 -42 153 l-20 72 27 0
c28 0 29 -2 58 -122z m-1757 -73 c0 -108 -1 -115 -20 -115 -19 0 -20 7 -20
115 0 108 1 115 20 115 19 0 20 -7 20 -115z m98 99 c8 -14 10 -14 21 0 17 20
65 21 81 1 11 -13 15 -13 33 0 30 21 71 19 93 -6 15 -17 19 -37 19 -112 0 -88
-1 -92 -22 -95 -22 -3 -23 -1 -23 75 0 85 -14 121 -44 110 -25 -10 -38 -54
-35 -122 3 -55 1 -60 -19 -63 -21 -3 -22 0 -22 73 0 79 -11 115 -35 115 -29 0
-45 -42 -45 -117 0 -66 -2 -73 -20 -73 -19 0 -20 7 -20 115 0 94 3 115 15 115
7 0 18 -7 23 -16z m1429 1 c23 -16 49 -88 38 -105 -3 -6 -35 -10 -71 -10 -35
0 -64 -3 -64 -8 0 -4 7 -18 16 -30 12 -17 25 -22 60 -22 38 0 45 -3 42 -17 -2
-13 -15 -19 -47 -21 -83 -6 -118 36 -109 130 4 40 11 57 32 75 31 27 72 30
103 8z m131 -176 c5 -25 -27 -52 -44 -38 -15 12 -19 41 -7 53 12 12 48 2 51
-15z m316 6 c8 -23 -4 -45 -25 -45 -11 0 -22 7 -25 15 -9 23 3 45 25 45 10 0
21 -7 25 -15z"/>
<path d="M8085 9891 c-39 -18 -52 -31 -185 -182 -197 -226 -398 -355 -800
-514 -359 -143 -476 -208 -673 -378 -53 -47 -130 -102 -170 -122 -39 -21 -112
-64 -162 -95 -152 -94 -258 -131 -541 -185 -428 -82 -452 -88 -548 -139 -128
-67 -155 -198 -59 -288 45 -42 114 -78 323 -168 237 -101 425 -189 845 -393
547 -265 686 -318 1162 -436 338 -85 489 -134 652 -212 290 -139 496 -313
1096 -925 504 -515 596 -594 684 -594 93 0 140 58 186 232 37 140 75 531 54
553 -4 3 -31 -5 -61 -18 l-54 -24 -17 -169 c-31 -298 -66 -434 -112 -434 -37
0 -159 113 -625 581 -245 246 -494 491 -555 545 -226 201 -422 330 -641 420
-140 58 -243 89 -599 179 -479 122 -575 159 -1200 465 -303 148 -599 285 -846
390 -142 60 -219 107 -219 135 0 19 45 48 112 73 31 12 175 44 320 71 380 73
536 119 659 194 124 76 158 96 229 136 42 23 123 83 180 132 185 158 272 207
600 339 495 199 670 317 953 643 67 77 88 83 139 38 19 -16 69 -95 117 -182
47 -85 125 -217 174 -294 146 -227 201 -328 278 -504 39 -91 74 -169 78 -173
5 -6 108 26 119 36 5 6 -129 311 -172 391 -23 45 -95 163 -160 263 -64 100
-149 242 -188 314 -98 184 -148 252 -211 288 -60 35 -104 38 -162 11z"/>
<path d="M8110 9643 c-153 -203 -373 -376 -655 -514 -88 -43 -156 -79 -151
-79 4 0 115 -13 245 -30 130 -16 364 -45 521 -65 157 -19 351 -46 433 -58 81
-13 147 -22 147 -20 0 14 -69 133 -155 268 -106 166 -196 318 -241 408 -37 72
-83 137 -97 137 -7 0 -28 -22 -47 -47z"/>
<path d="M7331 6883 c17 -44 66 -128 162 -273 107 -162 139 -224 184 -355 61
-178 57 -373 -13 -658 -19 -76 -34 -142 -34 -148 0 -14 41 -11 137 11 168 39
349 109 578 222 109 54 416 229 456 259 l24 18 -94 95 c-52 53 -96 94 -98 92
-4 -3 25 -223 33 -248 4 -13 -26 -34 -129 -92 -74 -42 -140 -76 -146 -76 -8 0
-11 48 -11 158 l0 157 107 60 c59 33 108 65 109 70 1 6 -47 55 -106 110 -92
85 -113 100 -138 98 -27 -3 -32 1 -44 37 -11 33 -30 53 -112 115 l-99 74 -70
-35 c-38 -20 -74 -33 -81 -31 -6 3 -36 47 -65 98 -59 105 -89 139 -103 115 -9
-16 -107 -56 -214 -86 l-69 -20 -15 21 c-8 12 -39 62 -67 112 -38 65 -49 93
-41 98 15 10 10 14 -24 23 -27 6 -27 5 -17 -21z m652 -510 c25 -75 44 -140 41
-145 -11 -17 -281 -89 -288 -76 -1 2 -20 57 -42 123 -23 66 -44 127 -48 135
-5 13 11 20 86 39 51 12 113 31 138 41 25 10 50 18 56 19 7 1 32 -61 57 -136z
m337 -45 c0 -7 9 -73 19 -147 l18 -134 -121 -57 c-180 -86 -162 -92 -170 52
-4 68 -8 135 -9 150 -2 26 6 32 118 87 126 63 145 69 145 49z m-275 -525 c-12
-127 -33 -246 -46 -254 -18 -11 -257 -77 -305 -85 l-41 -6 34 148 c48 217 32
193 148 220 55 12 120 29 145 37 75 25 73 27 65 -60z"/>
<path d="M3352 5032 c-77 -12 -129 -151 -87 -231 72 -139 245 -83 245 79 0 90
-78 165 -158 152z"/>
<path d="M3870 4980 c0 -80 2 -90 18 -90 25 0 60 27 77 60 13 26 13 30 -8 61
-12 18 -37 39 -54 46 l-33 13 0 -90z"/>
<path d="M3881 4718 c1 -35 4 -74 8 -88 l7 -25 42 41 c23 23 42 47 42 53 0 17
-53 69 -77 76 -22 6 -23 4 -22 -57z"/>
<path d="M4834 4933 c4 -59 9 -109 11 -111 8 -9 66 31 88 60 37 50 40 71 15
103 -22 28 -73 55 -104 55 -15 0 -16 -11 -10 -107z"/>
<path d="M5929 4923 c-23 -59 -39 -106 -37 -108 9 -7 98 -11 98 -5 0 15 -41
140 -46 140 -2 0 -9 -12 -15 -27z"/>
<path d="M9016 4934 c4 -60 8 -110 9 -112 7 -8 65 30 84 54 26 33 34 60 27 89
-7 29 -53 63 -96 71 l-31 7 7 -109z"/>
<path d="M3307 4173 c-4 -3 -7 -82 -7 -175 l0 -168 25 0 c38 0 79 24 119 71
52 62 62 98 37 146 -39 77 -146 154 -174 126z"/>
<path d="M3888 4083 c2 -60 5 -109 7 -111 7 -8 65 30 89 58 39 47 43 76 15
107 -24 25 -76 53 -101 53 -10 0 -12 -25 -10 -107z"/>
<path d="M5670 4064 c-6 -16 -18 -48 -27 -72 -9 -23 -14 -44 -12 -46 9 -8 109
-12 109 -5 0 10 -49 141 -55 147 -2 3 -9 -8 -15 -24z"/>
<path d="M6836 4149 c-3 -17 -6 -96 -6 -175 l0 -144 29 0 c40 0 108 54 139
110 20 36 24 53 18 81 -11 62 -112 159 -164 159 -5 0 -12 -14 -16 -31z"/>
<path d="M7850 4080 c0 -60 2 -110 5 -110 17 0 66 33 88 60 34 40 42 68 26 96
-12 22 -81 64 -107 64 -9 0 -12 -32 -12 -110z"/>
<path d="M5940 2325 l0 -115 31 0 c43 0 69 16 85 55 18 44 18 98 -1 134 -16
33 -33 41 -81 41 l-34 0 0 -115z"/>
<path d="M6851 2338 c-8 -21 -6 -23 31 -26 22 -2 43 -1 46 3 12 12 -15 40 -42
43 -20 3 -28 -2 -35 -20z"/>
</g>
</svg>
