<?xml version="1.0" standalone="no"?>
<!DOCTYPE svg PUBLIC "-//W3C//DTD SVG 20010904//EN"
 "http://www.w3.org/TR/2001/REC-SVG-20010904/DTD/svg10.dtd">
<svg version="1.0" xmlns="http://www.w3.org/2000/svg"
 width="1254.000000pt" height="1254.000000pt" viewBox="0 0 1254.000000 1254.000000"
 preserveAspectRatio="xMidYMid meet">

<g transform="translate(0.000000,1254.000000) scale(0.100000,-0.100000)"
fill="#000000" stroke="none">
<path d="M7268 10046 c-158 -46 -248 -129 -465 -428 -264 -365 -519 -596 -903
-820 -52 -30 -185 -104 -295 -163 -509 -274 -618 -349 -870 -595 -167 -163
-238 -221 -370 -302 -320 -195 -644 -320 -1166 -448 -189 -46 -306 -67 -999
-180 -296 -48 -502 -90 -626 -126 -177 -51 -302 -141 -360 -261 -26 -51 -29
-69 -29 -153 0 -82 4 -103 27 -152 50 -108 157 -198 304 -256 44 -17 187 -71
319 -120 525 -196 1160 -463 2145 -902 476 -212 567 -249 869 -351 244 -83
354 -113 783 -219 917 -225 1214 -341 1728 -675 353 -229 672 -494 1265 -1049
698 -654 706 -661 858 -719 75 -29 92 -31 202 -31 102 0 129 3 178 23 186 73
305 223 391 489 61 191 141 597 162 829 4 40 12 77 18 82 19 15 327 89 446
106 165 24 155 17 168 122 71 555 77 1200 16 1768 -31 290 -121 821 -184 1089
-32 135 -53 142 -330 110 -330 -37 -675 -128 -1168 -306 -106 -39 -195 -68
-197 -66 -3 3 -66 246 -174 673 -50 195 -60 217 -104 238 -43 21 -52 21 -135
0 -240 -59 -677 -260 -922 -424 -140 -94 -537 -386 -650 -479 -99 -81 -331
-251 -440 -323 -200 -131 -522 -286 -633 -304 -68 -11 -81 -32 -110 -189 -28
-149 -47 -309 -47 -405 0 -56 1 -59 28 -65 60 -13 354 -98 471 -135 68 -22
125 -38 127 -36 3 2 -4 58 -15 124 -11 66 -23 158 -26 204 l-7 84 78 44 c44
25 137 80 207 124 71 43 130 77 133 74 3 -2 11 -65 19 -138 14 -127 38 -277
51 -326 5 -19 -6 -30 -77 -76 -46 -30 -121 -76 -167 -102 -46 -27 -79 -51 -75
-55 4 -4 67 -30 138 -58 72 -28 170 -69 220 -91 49 -22 91 -38 93 -36 2 2 -7
43 -21 92 -14 48 -35 131 -47 183 -12 52 -23 100 -25 107 -2 6 60 57 138 113
78 57 168 123 200 147 33 24 60 43 62 41 2 -2 16 -53 30 -113 14 -61 42 -168
61 -238 31 -109 34 -131 23 -142 -8 -7 -81 -61 -164 -120 -82 -59 -154 -111
-158 -115 -5 -4 33 -30 85 -58 51 -28 156 -89 232 -136 134 -83 140 -86 163
-71 22 15 24 14 33 -10 6 -15 10 -32 10 -39 0 -7 19 -26 43 -41 36 -24 202
-145 302 -221 l30 -23 120 74 c65 41 122 71 126 67 8 -8 73 -286 90 -385 20
-120 -2 -126 -110 -29 -103 92 -261 220 -406 328 -652 488 -1150 715 -2070
945 -891 223 -1005 263 -1890 659 -747 334 -1442 625 -2000 838 -45 17 -74 33
-65 36 15 5 128 23 645 102 789 120 1342 280 1814 525 290 151 449 267 666
485 205 205 333 292 792 537 459 246 683 400 932 642 159 155 252 264 413 485
67 91 130 175 141 187 l20 22 28 -35 c15 -19 75 -129 133 -244 170 -338 228
-443 498 -892 169 -282 233 -400 316 -583 54 -118 138 -325 190 -465 13 -35
25 -54 34 -51 151 42 159 45 153 70 -12 46 -163 417 -230 561 -87 190 -115
240 -325 590 -206 342 -345 591 -461 822 -141 282 -193 359 -270 399 -106 54
-167 12 -344 -236 -126 -177 -221 -291 -360 -434 -257 -264 -456 -406 -935
-666 -533 -290 -695 -401 -864 -591 -212 -238 -644 -493 -1101 -650 -423 -146
-760 -223 -1380 -314 -678 -101 -924 -161 -950 -234 -20 -58 7 -73 410 -225
605 -227 1161 -459 1950 -811 511 -228 558 -248 755 -327 303 -122 510 -185
1042 -318 681 -169 878 -229 1203 -367 237 -101 469 -231 740 -416 370 -252
702 -529 1230 -1028 654 -616 674 -634 758 -659 166 -49 268 36 346 289 26 84
84 371 106 526 9 63 20 125 25 137 6 15 29 28 79 44 39 13 72 21 75 18 2 -2 0
-31 -5 -64 -73 -482 -128 -720 -203 -875 -41 -85 -123 -172 -194 -207 -50 -24
-69 -28 -147 -28 -109 0 -181 24 -268 89 -32 24 -273 244 -535 488 -770 719
-1025 933 -1419 1192 -537 352 -865 478 -1936 740 -617 151 -846 237 -1967
741 -580 260 -1435 609 -1886 770 -147 52 -193 75 -243 121 -49 44 -71 90 -71
148 0 122 95 207 288 257 192 49 479 101 1062 190 373 57 811 165 1105 271
466 170 756 341 1030 611 243 240 345 312 745 529 533 288 683 384 904 577
169 147 329 332 511 589 157 221 233 282 362 290 111 7 213 -46 299 -158 24
-30 114 -194 202 -365 153 -297 235 -442 516 -915 194 -325 259 -458 431 -884
l93 -228 40 -18 c51 -23 69 -57 111 -215 18 -66 45 -167 61 -225 16 -58 43
-156 60 -218 17 -62 42 -137 55 -167 l25 -55 52 21 c29 12 65 26 81 31 15 6
27 14 27 19 0 5 -41 111 -91 236 -50 126 -143 363 -206 528 -275 717 -355 889
-621 1330 -266 441 -351 593 -502 895 -62 124 -130 252 -152 285 -79 118 -189
212 -300 256 -67 27 -212 35 -280 15z m1626 -2856 c9 -9 109 -401 104 -405 -2
-1 -30 -11 -63 -22 -33 -12 -83 -30 -112 -41 -60 -25 -53 -32 -77 88 -23 110
-46 274 -46 320 l0 39 63 20 c59 19 111 19 131 1z m-623 -470 c12 -91 24 -181
26 -200 5 -34 3 -36 -54 -63 -68 -34 -143 -78 -271 -160 -51 -33 -95 -57 -98
-55 -13 13 -34 238 -34 364 l0 142 93 60 c51 33 139 85 197 116 l105 56 7 -48
c3 -26 17 -121 29 -212z m535 -314 c29 -121 52 -221 51 -222 -1 -1 -63 -30
-137 -64 -74 -34 -167 -77 -206 -95 l-72 -33 -27 115 c-25 109 -55 251 -70
336 l-6 38 88 41 c48 22 140 63 203 89 97 40 116 45 119 32 2 -9 27 -116 57
-237z m1584 186 c0 -25 54 -347 66 -398 5 -19 -2 -22 -78 -38 -46 -9 -144 -32
-218 -50 -74 -19 -136 -33 -138 -31 -8 8 -92 403 -90 424 3 22 13 27 88 48
116 31 353 81 363 76 4 -2 7 -16 7 -31z m-3030 -314 c0 -62 5 -175 11 -252
l12 -140 -29 -23 c-96 -78 -346 -254 -352 -248 -9 9 -8 341 2 438 l8 78 111
84 c62 46 137 104 167 129 30 24 58 45 63 45 4 1 7 -49 7 -111z m2069 -155
c34 -115 64 -216 67 -225 3 -11 -3 -19 -18 -23 -13 -4 -110 -43 -216 -86 -106
-43 -196 -79 -201 -79 -6 0 -119 414 -124 458 -1 9 51 32 148 67 83 29 173 62
200 73 28 11 57 20 65 21 12 1 31 -51 79 -206z m1480 25 c16 -78 61 -359 61
-380 0 -13 -12 -18 -47 -23 -27 -3 -106 -15 -176 -26 -70 -12 -134 -19 -141
-16 -13 5 -53 153 -91 335 -23 112 -22 119 23 127 103 17 244 33 299 34 l62 1
10 -52z m-3040 -40 c7 -46 28 -154 48 -241 20 -86 34 -158 32 -160 -33 -20
-194 -132 -300 -209 -76 -54 -141 -98 -147 -98 -15 0 -82 379 -82 465 0 15 31
44 108 102 158 119 305 222 318 223 6 0 16 -37 23 -82z m2191 -306 c29 -123
48 -227 44 -232 -5 -4 -61 -24 -124 -45 -63 -21 -160 -55 -214 -77 -108 -43
-110 -42 -122 22 -4 19 -29 113 -55 208 -27 95 -49 179 -49 187 0 8 17 22 38
31 87 37 417 143 423 136 4 -4 30 -108 59 -230z m-1620 96 c7 -29 35 -134 61
-233 27 -99 49 -183 49 -186 0 -4 -44 -31 -97 -60 -54 -28 -151 -83 -216 -122
-67 -40 -121 -66 -126 -61 -15 16 -121 420 -121 459 0 7 24 28 53 46 97 61
362 209 374 209 6 0 17 -24 23 -52z m-1915 -100 c-4 -13 -8 -129 -10 -258 l-4
-235 -113 -51 c-121 -55 -315 -124 -349 -124 -20 0 -21 3 -15 78 11 124 35
291 54 371 l17 73 135 47 c74 26 167 64 205 84 83 43 90 44 80 15z m2567 -354
c31 -120 57 -226 57 -235 1 -11 -30 -30 -96 -59 -54 -23 -147 -68 -208 -99
-60 -31 -113 -57 -117 -59 -4 -2 -12 16 -18 40 -22 85 -110 407 -116 422 -4
11 17 26 78 57 118 60 341 158 353 155 5 -1 35 -101 67 -222z m1508 134 c12
-46 41 -148 65 -228 l43 -145 -26 -7 c-193 -51 -424 -103 -428 -97 -7 13 -104
427 -104 447 0 16 16 23 83 41 168 44 283 70 313 70 31 1 32 0 54 -81z m-910
-403 c23 -104 43 -212 44 -239 l1 -48 -215 -98 c-184 -84 -216 -96 -222 -82
-3 9 -21 86 -38 171 -18 84 -41 185 -51 224 -10 40 -15 75 -11 79 6 6 106 51
367 165 39 17 73 28 76 24 4 -3 26 -91 49 -196z m1344 -27 c3 -46 8 -151 12
-234 l6 -151 -70 -11 c-117 -20 -102 -34 -161 166 -29 97 -59 197 -67 221 -8
25 -12 46 -10 48 3 4 237 40 267 42 14 1 18 -14 23 -81z m-2924 -10 c22 -83
52 -185 91 -307 22 -68 39 -125 37 -126 -3 -3 -427 -287 -446 -299 -7 -4 -33
60 -76 195 -94 289 -96 254 16 337 134 101 341 241 355 242 7 0 17 -19 23 -42z
m2165 -230 c21 -84 49 -187 61 -228 13 -41 21 -76 19 -79 -3 -2 -67 -25 -144
-51 -77 -26 -183 -65 -236 -85 -53 -21 -97 -36 -99 -34 -5 5 -71 309 -86 392
-7 39 -9 72 -4 76 23 20 405 160 440 161 7 0 28 -67 49 -152z m-1505 -222 c33
-131 60 -243 60 -250 0 -6 -37 -30 -82 -52 -46 -23 -138 -73 -205 -112 -68
-39 -123 -69 -123 -67 0 6 -98 329 -126 415 -13 41 -21 77 -16 81 6 6 224 131
362 207 30 16 58 27 62 23 5 -4 35 -114 68 -245z m2120 -85 c52 -169 108 -361
105 -361 -19 0 -230 -48 -333 -76 -73 -20 -135 -34 -138 -31 -3 3 -32 98 -64
212 -33 115 -62 216 -65 226 -4 13 2 20 27 28 72 24 385 100 410 101 26 0 29
-5 58 -99z m-1565 -182 c24 -128 41 -237 39 -241 -8 -12 -385 -210 -390 -205
-3 3 -21 86 -40 185 -19 99 -40 208 -48 241 l-14 61 26 19 c48 33 372 185 379
177 2 -2 23 -108 48 -237z m590 -260 c31 -127 53 -234 49 -239 -5 -4 -43 -22
-84 -40 -41 -18 -142 -66 -224 -107 -82 -41 -152 -71 -156 -66 -5 4 -27 103
-49 218 -23 116 -44 219 -46 231 -4 18 12 30 116 83 109 57 315 150 330 151 4
0 32 -104 64 -231z m603 -121 c47 -214 82 -402 75 -408 -4 -4 -46 -17 -93 -30
-47 -12 -150 -44 -230 -70 -79 -27 -147 -47 -151 -45 -3 3 -12 33 -19 67 -6
35 -29 130 -51 213 -21 82 -35 152 -31 156 19 16 441 167 473 168 10 1 19 -15
27 -51z m-1573 -210 c5 -32 37 -333 50 -474 6 -65 10 -75 42 -105 l35 -34 -8
85 c-4 47 -8 96 -8 109 -1 22 22 37 199 133 110 59 206 107 214 106 10 -2 28
-65 59 -206 25 -111 43 -204 41 -205 -2 -2 -91 -50 -197 -106 -191 -102 -193
-103 -214 -85 -12 11 -105 97 -207 193 -101 95 -242 226 -313 290 l-128 116
23 18 c25 21 379 195 399 196 4 1 10 -14 13 -31z m931 -555 c-39 -279 -98
-533 -143 -615 -53 -97 -77 -83 -401 222 l-112 106 67 39 c95 55 570 295 584
295 8 0 9 -15 5 -47z"/>
</g>
</svg>
